<?xml version="1.0" standalone="no"?>
<!DOCTYPE svg PUBLIC "-//W3C//DTD SVG 20010904//EN"
 "http://www.w3.org/TR/2001/REC-SVG-20010904/DTD/svg10.dtd">
<svg version="1.0" xmlns="http://www.w3.org/2000/svg"
 width="500.000000pt" height="500.000000pt" viewBox="0 0 500.000000 500.000000"
 preserveAspectRatio="xMidYMid meet">

<g transform="translate(0.000000,500.000000) scale(0.100000,-0.100000)"
fill="#000000" stroke="none">
<path d="M2622 4729 c-49 -19 -233 -39 -253 -28 -11 5 -31 4 -56 -5 -62 -22
-197 -31 -214 -14 -52 51 -177 46 -241 -10 -10 -8 -15 -19 -12 -24 3 -4 0 -7
-8 -6 -7 2 -12 -3 -10 -10 1 -8 -2 -11 -7 -7 -6 3 -22 -2 -36 -11 -21 -14 -36
-15 -100 -7 -41 5 -75 8 -75 6 0 -2 5 -12 12 -22 9 -15 15 -17 29 -8 23 14 36
2 19 -18 -16 -19 -14 -20 27 -28 26 -5 31 -4 26 9 -4 12 -1 15 13 12 12 -2 18
-11 17 -23 -4 -36 10 -53 16 -21 9 45 31 45 31 1 0 -39 22 -46 28 -9 2 10 9
24 14 29 7 7 9 3 5 -12 -3 -13 -1 -23 4 -23 5 0 9 7 9 15 0 8 5 15 10 15 6 0
8 -12 5 -27 -6 -27 -6 -27 9 -9 15 18 16 18 16 2 0 -10 9 -20 20 -23 22 -6 28
-25 8 -22 -7 1 -26 -3 -43 -10 -16 -6 -66 -26 -110 -43 -209 -83 -472 -243
-612 -371 -19 -18 -36 -26 -44 -22 -7 5 -10 4 -6 -1 3 -6 -29 -46 -70 -89 -42
-44 -78 -74 -81 -67 -2 7 -8 10 -13 6 -5 -3 -9 2 -9 11 0 11 5 15 15 11 8 -3
21 4 30 17 23 33 18 38 -19 16 -37 -22 -89 -83 -79 -93 3 -3 2 -11 -3 -19 -5
-7 1 -2 13 12 12 14 19 29 16 34 -3 5 5 6 18 2 32 -10 33 -11 20 -27 -39 -45
-141 -182 -170 -226 -18 -29 -38 -49 -44 -45 -5 3 -7 1 -4 -4 4 -6 -12 -44
-34 -84 -125 -225 -220 -511 -250 -751 -10 -79 -26 -121 -47 -125 -6 -2 -14 8
-18 21 -4 16 -11 23 -20 19 -8 -3 -14 0 -14 7 0 6 -10 24 -21 38 l-22 27 7
-35 c4 -19 8 -44 9 -55 1 -11 8 -30 15 -42 8 -15 9 -23 2 -23 -6 0 -14 8 -17
18 -4 9 -19 29 -35 45 -15 15 -28 32 -28 37 0 13 -30 13 -31 0 -1 -5 -2 -19
-3 -29 0 -11 -4 -22 -7 -26 -5 -5 2 -60 12 -85 12 -32 27 -50 65 -75 51 -34
62 -62 70 -170 7 -90 51 -330 77 -420 12 -38 22 -77 23 -85 1 -8 9 -33 18 -54
9 -22 19 -67 22 -100 3 -34 16 -93 30 -133 13 -39 24 -85 24 -103 0 -21 9 -40
30 -60 16 -16 30 -36 30 -43 0 -15 73 -110 174 -227 30 -36 58 -77 61 -91 7
-31 51 -79 122 -133 55 -42 91 -96 96 -142 3 -32 32 -82 59 -102 10 -7 18 -21
18 -30 0 -21 99 -76 121 -67 10 4 20 -3 29 -20 10 -19 21 -25 39 -23 15 1 32
-1 39 -5 6 -5 16 -6 21 -3 5 3 39 -15 75 -40 37 -24 70 -42 75 -39 5 3 11 1
13 -3 3 -8 90 -52 144 -72 35 -14 103 -22 85 -11 -19 12 4 25 50 26 34 1 36 0
21 -14 -9 -9 -22 -16 -29 -16 -7 0 -13 -5 -13 -10 -1 -12 68 -28 88 -20 7 2
11 1 8 -4 -6 -9 66 -37 164 -64 30 -9 95 -16 145 -16 50 0 102 -4 115 -9 14
-5 46 -10 72 -10 26 -1 55 -6 65 -12 14 -9 28 -8 58 2 22 7 61 13 86 13 34 0
45 3 42 12 -3 7 0 13 6 13 6 0 11 -8 11 -19 0 -13 10 -21 33 -26 17 -4 36 -7
41 -6 5 1 16 -1 25 -5 28 -12 55 -11 95 2 21 8 42 11 47 8 15 -9 132 18 117
27 -7 5 -24 7 -38 4 -57 -11 -100 -13 -134 -5 -20 4 -34 4 -31 0 8 -12 -37
-20 -56 -9 -25 13 -13 39 17 39 13 0 24 5 24 11 0 6 6 9 13 6 14 -5 47 30 47
50 0 7 5 13 10 13 6 0 10 6 10 14 0 8 6 17 13 20 6 3 -6 3 -28 0 -50 -7 -52
-10 -31 -33 11 -12 14 -21 7 -26 -14 -8 -32 3 -30 18 3 23 -1 40 -8 34 -3 -4
-12 -2 -19 4 -8 6 -20 9 -28 6 -8 -3 -17 1 -20 10 -7 17 14 49 23 36 3 -4 14
-14 23 -21 14 -11 16 -11 11 7 -4 16 1 21 34 26 180 29 386 89 548 159 70 30
132 53 138 49 6 -3 7 -1 3 5 -4 7 10 20 36 33 52 26 201 125 283 187 97 74
306 289 389 401 497 671 562 1534 170 2269 -84 157 -215 340 -324 452 -28 28
-50 54 -50 58 -1 4 -19 19 -41 35 -24 16 -37 32 -33 39 4 6 3 8 -3 5 -5 -3
-27 9 -48 28 -21 19 -40 35 -43 35 -14 0 -40 33 -35 46 3 9 -1 12 -15 9 -11
-2 -28 4 -38 13 -11 10 -32 25 -47 35 -15 10 -25 23 -21 29 4 7 3 8 -5 4 -6
-4 -31 4 -55 18 -32 19 -46 34 -51 56 -7 33 -25 41 -25 11 0 -16 -5 -16 -60
11 -51 24 -60 32 -60 54 0 22 -2 24 -15 14 -8 -7 -12 -16 -9 -21 3 -5 -5 -5
-18 0 -13 5 -22 14 -20 20 1 6 -2 12 -8 12 -11 2 -25 5 -37 9 -5 1 -12 2 -17
1 -16 -3 -71 22 -80 37 -6 11 -10 12 -16 2 -5 -9 -9 -9 -14 -1 -4 6 -2 11 3
11 6 0 11 7 11 15 0 8 -7 15 -15 15 -8 0 -15 -4 -15 -8 0 -4 -19 -8 -42 -7
-33 1 -43 5 -49 23 -5 12 -11 22 -14 22 -4 0 -4 -4 0 -9 11 -19 -16 -22 -41
-6 -14 9 -28 14 -32 11 -3 -3 1 -6 8 -6 7 0 11 -2 8 -5 -10 -10 -38 7 -38 24
0 9 -7 27 -16 39 -18 26 -15 33 18 37 13 2 30 6 39 10 9 3 23 -1 32 -9 21 -21
47 -20 47 2 1 15 2 15 16 -3 11 -14 18 -16 21 -7 3 6 9 12 14 12 14 0 11 -28
-3 -33 -8 -3 -6 -6 5 -6 9 -1 17 -5 17 -11 0 -5 9 -14 20 -20 11 -6 20 -7 19
-3 -1 4 -1 19 0 33 l2 25 9 -23 c5 -12 7 -30 4 -40 -3 -9 2 -4 11 11 11 20 22
27 33 23 9 -4 6 3 -8 14 -39 31 -127 60 -230 76 -52 8 -109 19 -125 24 -17 6
-53 13 -80 16 -28 4 -59 11 -70 17 -19 10 -19 9 -5 -9 14 -17 13 -18 -1 -7 -8
7 -25 11 -36 9 -11 -2 -26 0 -34 6 -10 7 -7 8 14 5 15 -2 30 -1 32 3 7 11 -71
24 -86 15 -6 -4 -14 -3 -18 2 -4 7 -15 7 -29 2z m-22 -51 c0 -6 -6 -5 -15 2
-8 7 -15 14 -15 16 0 2 7 1 15 -2 8 -4 15 -11 15 -16z m38 3 c-2 -17 4 -20 27
-11 20 8 25 6 25 -6 0 -8 5 -12 10 -9 6 3 10 -1 10 -9 0 -13 3 -14 19 -4 15 9
22 8 39 -8 21 -19 16 -54 -6 -41 -5 4 -17 -2 -27 -13 -20 -22 -35 -26 -35 -10
0 6 7 10 15 10 18 0 19 12 3 28 -15 15 -32 16 -23 1 4 -6 -2 -13 -14 -16 -12
-3 -21 -11 -21 -18 0 -18 -25 -26 -39 -12 -9 9 -14 9 -19 0 -10 -16 -82 -15
-76 1 3 7 -2 18 -9 25 -12 9 -16 8 -21 -4 -7 -18 -32 -20 -40 -2 -3 6 -4 0 -1
-14 l5 -26 -92 -7 c-50 -4 -142 -16 -202 -26 -70 -12 -115 -15 -120 -9 -6 6
-4 9 7 9 11 0 14 5 10 16 -5 13 -2 15 14 10 14 -4 23 -1 27 9 3 8 12 15 19 15
8 0 19 12 25 26 10 20 17 24 34 18 16 -5 20 -3 15 9 -5 13 4 17 39 23 24 3 44
10 44 15 0 5 5 9 11 9 5 0 7 -5 3 -12 -5 -8 -2 -9 9 -5 11 4 17 1 17 -8 0 -8
2 -15 5 -15 9 0 45 40 43 48 -2 4 8 9 21 10 13 2 21 0 18 -5 -3 -5 8 -16 24
-25 16 -10 29 -13 29 -8 0 15 20 12 38 -6 11 -11 17 -13 20 -5 5 16 62 44 62
31 0 -5 7 -10 15 -10 8 0 15 8 15 18 0 10 7 19 14 19 8 0 15 -3 14 -6z m-548
-21 c0 -5 -2 -10 -4 -10 -3 0 -8 5 -11 10 -3 6 -1 10 4 10 6 0 11 -4 11 -10z
m795 0 c-3 -5 -1 -10 4 -10 6 0 11 -7 11 -15 0 -8 6 -15 14 -15 7 0 19 -7 26
-15 7 -8 16 -13 20 -10 4 3 10 -7 13 -20 2 -14 0 -28 -5 -31 -5 -3 -7 -12 -4
-20 3 -9 -2 -14 -14 -14 -11 0 -19 3 -19 8 1 4 1 18 0 32 l-2 25 -10 -24 c-9
-23 -10 -23 -30 -5 -13 12 -18 13 -14 3 4 -10 -3 -15 -25 -16 -21 -2 -30 2
-30 13 0 8 -6 17 -14 20 -10 4 -12 14 -6 40 10 43 18 52 26 30 8 -22 24 -20
24 3 0 11 8 22 18 24 9 3 18 5 20 6 2 0 0 -3 -3 -9z m52 -26 c-3 -3 -12 -4
-19 -1 -8 3 -5 6 6 6 11 1 17 -2 13 -5z m116 -8 c7 3 3 -2 -7 -10 -15 -12 -22
-13 -27 -4 -5 7 -3 16 4 20 7 4 14 3 15 -2 2 -6 9 -8 15 -4z m-541 -337 c3
-141 5 -163 21 -173 12 -8 22 -8 35 0 15 10 17 32 20 174 l3 163 112 -6 c174
-10 345 -45 524 -108 111 -39 293 -124 293 -137 0 -6 -34 -68 -75 -139 -41
-71 -75 -136 -75 -145 0 -23 27 -41 52 -35 17 5 45 44 101 142 51 88 83 133
90 128 201 -116 473 -372 569 -537 23 -39 52 -81 64 -92 39 -37 22 -57 -111
-134 -68 -39 -126 -77 -129 -86 -9 -23 12 -54 37 -54 12 0 54 18 92 41 149 88
190 107 200 95 11 -12 17 -33 18 -53 0 -7 4 -13 9 -13 5 0 7 -4 3 -9 -3 -5 0
-13 6 -16 5 -4 8 -13 5 -21 -3 -8 0 -13 6 -11 7 1 25 -32 41 -73 17 -41 36
-88 43 -105 22 -54 53 -163 69 -247 9 -46 18 -92 20 -103 4 -17 25 -236 25
-257 0 -5 -71 -8 -158 -8 -166 0 -182 -4 -182 -45 0 -41 16 -45 177 -45 l153
0 0 -59 c0 -218 -76 -526 -191 -769 l-49 -104 -62 35 c-35 20 -94 54 -133 76
-38 23 -80 41 -92 41 -25 0 -46 -31 -37 -54 3 -9 61 -47 128 -86 66 -38 127
-74 135 -79 12 -8 8 -20 -24 -68 -118 -179 -305 -378 -478 -509 -58 -43 -119
-87 -135 -97 l-30 -17 -80 137 c-59 102 -85 139 -101 141 -26 4 -51 -14 -51
-36 0 -9 34 -74 75 -145 41 -71 75 -133 75 -138 0 -21 -251 -128 -406 -173
-134 -39 -286 -66 -411 -73 l-112 -6 -3 163 c-3 142 -5 164 -20 174 -13 8 -23
8 -35 0 -16 -10 -18 -32 -21 -174 l-3 -163 -113 6 c-221 12 -506 87 -718 190
l-108 52 81 139 c72 124 80 141 70 163 -9 19 -18 24 -38 21 -23 -3 -38 -23
-105 -138 -43 -74 -83 -134 -89 -132 -20 5 -125 80 -167 119 -49 45 -54 50
-113 94 -57 45 -205 198 -265 274 -62 80 -124 172 -124 183 0 6 61 45 136 87
131 76 135 79 132 109 -5 52 -37 46 -183 -38 -90 -52 -133 -72 -142 -65 -14
12 -97 200 -130 294 -56 163 -96 360 -108 533 l-7 92 159 0 c167 0 183 4 183
45 0 41 -16 45 -183 45 l-159 0 7 98 c4 53 12 107 16 120 5 13 9 37 9 53 0 49
57 281 91 369 48 125 119 271 136 277 7 3 69 -27 137 -67 139 -80 169 -86 174
-34 3 31 -1 34 -132 110 -75 43 -136 80 -136 84 0 11 90 141 145 210 128 160
279 299 455 418 l75 51 27 -43 c14 -24 51 -86 81 -137 44 -78 58 -95 80 -97
20 -3 30 3 38 20 9 21 1 41 -66 162 -42 75 -75 139 -74 141 13 11 174 87 224
104 69 24 68 24 60 11 -7 -12 7 -13 21 -2 15 14 115 52 136 52 10 0 29 6 41
14 12 8 67 23 122 35 126 26 142 28 242 30 l83 1 2 -161z m-2225 -1730 c-3
-10 -1 -22 4 -25 12 -7 11 -24 -1 -24 -5 0 -10 7 -10 15 0 11 -5 12 -25 5 -17
-6 -25 -6 -25 1 0 6 9 13 20 16 11 3 20 14 20 25 0 11 4 16 11 12 6 -3 9 -15
6 -25z m143 -19 c0 -13 -5 -18 -15 -14 -12 5 -13 10 -4 20 15 19 19 18 19 -6z
m-30 -40 c0 -5 -7 -10 -15 -10 -8 0 -15 5 -15 10 0 6 7 10 15 10 8 0 15 -4 15
-10z m-93 -32 c-3 -8 -6 -5 -6 6 -1 11 2 17 5 13 3 -3 4 -12 1 -19z m109 -2
c19 -19 18 -36 -2 -36 -8 0 -12 5 -9 10 3 6 2 10 -4 10 -5 0 -13 -5 -16 -10
-4 -6 -11 -8 -16 -5 -5 4 -9 1 -9 -4 0 -6 -4 -11 -9 -11 -14 0 12 49 29 54 8
2 16 4 18 5 2 0 10 -5 18 -13z m11 -98 c-3 -7 -5 -2 -5 12 0 14 2 19 5 13 2
-7 2 -19 0 -25z m-2 -76 c0 -18 -20 -15 -23 4 -3 10 1 15 10 12 7 -3 13 -10
13 -16z m19 -128 c3 -8 2 -12 -4 -9 -6 3 -10 10 -10 16 0 14 7 11 14 -7z m32
-215 c0 -27 -1 -28 -15 -14 -14 14 -14 17 -1 25 11 7 11 10 2 10 -7 0 -10 5
-7 11 10 16 20 1 21 -32z m34 -119 c0 -5 -5 -10 -11 -10 -5 0 -7 5 -4 10 3 6
8 10 11 10 2 0 4 -4 4 -10z m24 -82 c-9 -14 -23 2 -17 18 4 12 8 13 14 3 4 -7
5 -17 3 -21z m76 -368 c0 -5 -5 -10 -11 -10 -5 0 -7 5 -4 10 3 6 8 10 11 10 2
0 4 -4 4 -10z m786 -742 c4 -7 3 -8 -4 -4 -7 4 -12 2 -12 -3 0 -6 -5 -11 -11
-11 -8 0 -8 5 1 15 15 18 17 18 26 3z m-236 -63 c11 -13 10 -14 -4 -9 -9 3
-16 10 -16 15 0 13 6 11 20 -6z m260 5 c0 -5 -5 -10 -11 -10 -5 0 -7 5 -4 10
3 6 8 10 11 10 2 0 4 -4 4 -10z m76 -32 c-9 -5 -21 -6 -28 -2 -7 5 -8 3 -3 -6
5 -8 3 -11 -4 -9 -19 7 -9 24 12 22 9 -2 17 2 17 8 0 5 5 7 11 3 8 -5 6 -10
-5 -16z m-256 -9 c0 -5 -7 -9 -16 -9 -9 0 -12 -5 -8 -12 5 -9 2 -9 -9 1 -24
19 -21 29 8 29 14 0 25 -4 25 -9z m25 -20 c-10 -15 -25 -10 -19 6 4 8 10 12
15 9 5 -3 7 -10 4 -15z m34 -10 c-16 -10 -23 -4 -14 10 3 6 11 8 17 5 6 -4 5
-9 -3 -15z m191 12 c0 -6 -4 -13 -10 -16 -5 -3 -10 1 -10 9 0 9 5 16 10 16 6
0 10 -4 10 -9z m65 -21 c3 -5 2 -10 -4 -10 -5 0 -18 -3 -28 -7 -16 -6 -16 -5
-4 10 15 19 27 22 36 7z m-225 -31 c0 -6 -4 -7 -10 -4 -5 3 -10 11 -10 16 0 6
5 7 10 4 6 -3 10 -11 10 -16z m294 10 c-4 -8 1 -9 17 -5 13 3 18 3 12 0 -10
-4 -10 -11 -2 -26 8 -16 8 -22 -2 -29 -16 -10 -39 7 -39 30 0 14 -2 14 -10 1
-5 -8 -12 -11 -16 -7 -4 4 1 16 11 27 19 21 41 28 29 9z m-256 -21 c-6 -18
-28 -21 -28 -4 0 9 7 16 16 16 9 0 14 -5 12 -12z m182 -98 c0 -5 -4 -10 -10
-10 -5 0 -10 5 -10 10 0 6 5 10 10 10 6 0 10 -4 10 -10z m50 -6 c0 -9 5 -12
13 -8 6 4 9 3 4 -1 -4 -5 -17 -10 -29 -12 -16 -3 -18 -1 -9 10 6 8 8 17 4 20
-3 4 -1 7 5 7 7 0 12 -7 12 -16z m328 -9 c-3 -3 -9 2 -12 12 -6 14 -5 15 5 6
7 -7 10 -15 7 -18z m-272 0 c-22 -17 -5 -20 24 -5 13 7 21 7 25 0 3 -5 -2 -10
-12 -10 -11 0 -25 -6 -31 -12 -10 -10 -15 -10 -22 2 -7 11 -5 19 7 28 9 6 19
12 22 12 3 0 -3 -7 -13 -15z m97 -77 c-6 -11 -31 -10 -37 1 -4 5 -3 16 0 24 5
14 8 13 23 -1 10 -9 16 -20 14 -24z m902 12 c-2 -17 -7 -35 -10 -40 -9 -15
-35 -12 -35 4 0 8 -3 22 -6 30 -4 12 -2 15 9 11 8 -4 17 1 20 9 11 28 26 17
22 -14z m45 20 c0 -5 -4 -10 -9 -10 -6 0 -13 5 -16 10 -3 6 1 10 9 10 9 0 16
-4 16 -10z m-165 -20 c3 -5 -1 -10 -9 -10 -8 0 -18 5 -21 10 -3 6 1 10 9 10 8
0 18 -4 21 -10z m-535 -56 c0 -2 -9 -4 -21 -4 -11 0 -18 4 -14 10 5 8 35 3 35
-6z m17 -29 c0 -8 -4 -12 -9 -9 -5 3 -6 10 -3 15 9 13 12 11 12 -6z m53 -15
c0 -5 -4 -10 -10 -10 -5 0 -10 5 -10 10 0 6 5 10 10 10 6 0 10 -4 10 -10z m76
-13 c6 0 11 -6 11 -14 0 -16 -13 -17 -22 -2 -4 6 -13 8 -21 5 -8 -3 -14 -1
-14 5 0 6 -4 7 -10 4 -5 -3 -10 -1 -10 5 0 6 10 8 27 4 15 -4 33 -7 39 -7z
m594 -15 c0 -5 -8 -17 -19 -26 -18 -16 -18 -16 -14 9 5 22 33 37 33 17z m-200
-22 c0 -5 -10 -10 -22 -9 -22 0 -22 1 -3 9 11 5 21 9 23 9 1 1 2 -3 2 -9z"/>
<path d="M2860 4620 c0 -5 5 -10 10 -10 6 0 10 5 10 10 0 6 -4 10 -10 10 -5 0
-10 -4 -10 -10z"/>
<path d="M1840 4294 c0 -11 -6 -14 -20 -9 -14 4 -20 2 -20 -9 0 -9 -6 -13 -14
-10 -8 3 -17 0 -21 -5 -3 -6 -9 -9 -13 -7 -4 2 -12 -2 -19 -9 -9 -10 -6 -15
12 -23 24 -11 45 0 25 13 -12 7 -4 25 11 25 6 0 7 -4 4 -10 -8 -14 -3 -13 33
6 19 9 32 23 32 35 0 10 -2 19 -5 19 -3 0 -5 -7 -5 -16z"/>
<path d="M2350 3950 c-9 -28 -14 -89 -14 -165 0 -104 4 -130 27 -194 28 -80
53 -118 43 -66 -10 52 -27 226 -35 350 l-7 120 -14 -45z"/>
<path d="M2212 3793 c-34 -113 -24 -240 28 -350 32 -69 43 -80 30 -30 -11 42
-30 196 -38 322 l-7 100 -13 -42z"/>
<path d="M2619 3703 c-33 -95 -33 -246 -2 -315 12 -27 23 -48 25 -48 2 0 3 97
3 215 0 118 -1 215 -2 215 -1 0 -12 -30 -24 -67z"/>
<path d="M2436 3405 c14 -52 32 -97 59 -145 34 -60 9 -263 -60 -477 l-26 -83
-64 0 c-36 0 -65 2 -65 4 0 2 27 59 60 127 59 123 100 252 100 315 0 61 -27
109 -92 159 -60 47 -61 47 -54 19 4 -16 23 -61 43 -101 34 -66 36 -76 30 -133
-8 -69 -51 -204 -102 -317 l-34 -73 -53 0 c-147 -1 -373 -48 -439 -93 -94 -63
-14 -129 216 -179 117 -25 467 -36 639 -19 125 12 473 75 485 87 3 4 -12 4
-34 0 -186 -30 -349 -40 -645 -40 -246 0 -338 4 -418 17 -128 21 -176 35 -202
59 -41 38 17 87 135 113 69 16 283 35 297 28 4 -2 -10 -40 -32 -84 -22 -43
-38 -79 -36 -79 3 0 30 38 61 85 l57 85 46 0 c26 0 57 -3 69 -6 l21 -6 -24
-71 c-13 -39 -22 -72 -19 -75 2 -2 21 30 42 72 l37 76 68 0 c40 0 68 -4 68
-10 0 -6 -16 -42 -35 -80 -19 -39 -34 -70 -32 -70 2 0 28 34 58 76 l54 76 125
-7 c69 -4 141 -8 160 -10 75 -8 214 -14 205 -10 -5 2 -111 16 -234 30 -124 14
-226 27 -228 29 -2 1 24 56 57 122 58 116 100 246 100 308 -1 51 -32 102 -89
147 l-54 42 7 -34 c3 -19 20 -61 37 -94 27 -52 31 -67 26 -115 -5 -64 -44
-181 -97 -296 l-38 -82 -68 5 c-38 3 -70 6 -70 7 -1 0 16 45 38 99 79 195 112
396 80 487 -7 21 -41 63 -81 102 l-69 66 14 -53z"/>
<path d="M4400 3179 c0 -5 5 -7 10 -4 6 3 10 8 10 11 0 2 -4 4 -10 4 -5 0 -10
-5 -10 -11z"/>
<path d="M3434 2546 c-57 -27 -109 -69 -156 -129 l-33 -41 55 41 c99 75 173
92 224 52 31 -25 36 -81 10 -132 -70 -135 -338 -376 -482 -433 l-37 -14 42 5
c24 3 68 16 99 30 259 115 543 476 474 605 -23 43 -120 52 -196 16z"/>
<path d="M3138 2513 c7 -3 16 -2 19 1 4 3 -2 6 -13 5 -11 0 -14 -3 -6 -6z"/>
<path d="M3260 2488 c-39 -97 -214 -385 -299 -493 -58 -73 -175 -186 -233
-225 -80 -53 -176 -84 -263 -84 -220 1 -414 151 -675 519 -83 117 -91 125 -45
40 58 -108 196 -312 266 -392 105 -122 231 -208 346 -238 113 -29 286 9 408
90 141 94 283 275 389 495 54 113 130 309 122 317 -2 2 -9 -11 -16 -29z"/>
<path d="M3098 2503 c7 -3 16 -2 19 1 4 3 -2 6 -13 5 -11 0 -14 -3 -6 -6z"/>
<path d="M4516 2043 c-6 -14 -5 -15 5 -6 7 7 10 15 7 18 -3 3 -9 -2 -12 -12z"/>
<path d="M3120 1800 c223 -20 405 -56 450 -89 35 -26 39 -82 8 -128 -27 -40
-122 -114 -190 -149 -80 -41 -217 -82 -333 -100 -87 -13 -143 -15 -265 -10
-682 29 -1225 141 -1238 257 -6 51 82 107 242 154 106 31 79 31 -59 0 -303
-69 -377 -153 -208 -239 82 -41 231 -86 423 -128 711 -153 1264 -138 1637 44
96 47 194 123 207 160 12 34 -18 96 -62 125 -98 65 -277 101 -537 107 -159 4
-168 4 -75 -4z"/>
<path d="M1888 1763 c7 -3 16 -2 19 1 4 3 -2 6 -13 5 -11 0 -14 -3 -6 -6z"/>
<path d="M1470 4646 c0 -8 7 -16 15 -20 13 -4 14 -2 5 14 -13 23 -20 26 -20 6z"/>
<path d="M1562 4637 c10 -8 16 -16 13 -19 -3 -2 2 -5 10 -5 24 0 18 13 -12 26
-24 10 -26 9 -11 -2z"/>
<path d="M3885 4640 c-3 -5 -1 -10 4 -10 6 0 11 5 11 10 0 6 -2 10 -4 10 -3 0
-8 -4 -11 -10z"/>
<path d="M1412 4612 c-18 -2 -30 -8 -27 -13 8 -12 52 -11 60 2 9 14 6 15 -33
11z"/>
<path d="M3767 4603 c-4 -3 -7 -21 -7 -40 0 -36 -19 -45 -27 -13 -6 22 -18 26
-28 10 -4 -6 -11 -8 -16 -5 -5 4 -9 -1 -9 -9 0 -15 11 -20 37 -17 8 1 10 -5 7
-14 -3 -8 -2 -15 3 -15 15 0 43 35 43 53 0 9 5 17 10 17 6 0 10 9 10 20 0 20
-11 26 -23 13z"/>
<path d="M3402 4580 c-8 -13 -23 -20 -45 -20 -23 0 -28 -3 -17 -9 8 -6 18 -7
22 -5 4 3 8 0 8 -6 0 -7 -8 -9 -22 -4 -13 3 -20 3 -16 -1 4 -4 18 -9 31 -10
17 -2 26 5 36 25 9 21 18 28 32 25 13 -3 19 0 16 8 -6 20 -31 19 -45 -3z"/>
<path d="M1300 4580 c0 -5 5 -10 10 -10 6 0 10 5 10 10 0 6 -4 10 -10 10 -5 0
-10 -4 -10 -10z"/>
<path d="M1275 4571 c-3 -5 -2 -12 3 -15 5 -3 9 1 9 9 0 17 -3 19 -12 6z"/>
<path d="M1295 4540 c-3 -5 -1 -10 4 -10 6 0 11 5 11 10 0 6 -2 10 -4 10 -3 0
-8 -4 -11 -10z"/>
<path d="M3780 4526 c0 -13 -6 -26 -12 -28 -8 -3 -4 -9 10 -17 12 -6 22 -17
22 -23 0 -9 -3 -9 -12 0 -19 19 -30 14 -23 -10 18 -61 29 -76 54 -74 14 2 27
8 29 15 2 6 -3 9 -12 5 -16 -6 -23 11 -7 20 7 5 8 28 2 76 -1 13 -2 13 -11 0
-7 -11 -12 -12 -20 -4 -8 8 -7 15 4 26 11 11 12 18 3 27 -18 18 -27 13 -27
-13z"/>
<path d="M3185 4511 c-3 -5 -2 -12 3 -15 5 -3 9 1 9 9 0 17 -3 19 -12 6z"/>
<path d="M3680 4510 c0 -5 5 -10 11 -10 5 0 7 5 4 10 -3 6 -8 10 -11 10 -2 0
-4 -4 -4 -10z"/>
<path d="M3350 4499 c0 -5 5 -7 10 -4 6 3 10 8 10 11 0 2 -4 4 -10 4 -5 0 -10
-5 -10 -11z"/>
<path d="M3665 4470 c-3 -5 3 -10 15 -10 12 0 18 5 15 10 -3 6 -10 10 -15 10
-5 0 -12 -4 -15 -10z"/>
<path d="M3680 4430 c0 -11 8 -24 18 -28 18 -7 25 -24 24 -54 0 -10 4 -18 9
-18 16 0 22 29 9 45 -11 13 -10 18 5 29 25 18 10 38 -22 30 -18 -5 -24 -3 -19
5 4 6 1 11 -8 11 -9 0 -16 -9 -16 -20z"/>
<path d="M3307 4434 c-11 -11 3 -24 18 -18 8 4 12 10 9 15 -6 11 -18 12 -27 3z"/>
<path d="M3670 4378 c0 -12 -8 -30 -17 -41 -17 -18 -17 -19 1 -16 26 5 32 -17
6 -24 -11 -3 -20 -12 -20 -21 0 -20 16 -21 24 -1 3 8 12 15 21 15 17 0 20 25
5 35 -7 4 -8 11 -2 18 6 7 6 21 1 35 -11 28 -19 28 -19 0z"/>
<path d="M3750 4380 c0 -5 4 -10 9 -10 6 0 13 5 16 10 3 6 -1 10 -9 10 -9 0
-16 -4 -16 -10z"/>
<path d="M3743 4326 c-28 -13 -30 -32 -4 -39 22 -5 49 8 38 20 -5 4 -12 1 -17
-7 -8 -13 -10 -12 -10 3 0 9 7 17 15 17 8 0 15 5 15 10 0 12 -8 11 -37 -4z"/>
<path d="M3815 4280 c3 -5 11 -10 16 -10 6 0 7 5 4 10 -3 6 -11 10 -16 10 -6
0 -7 -4 -4 -10z"/>
<path d="M3720 4255 c0 -8 2 -15 4 -15 2 0 6 7 10 15 3 8 1 15 -4 15 -6 0 -10
-7 -10 -15z"/>
<path d="M4215 4260 c3 -5 11 -10 16 -10 6 0 7 5 4 10 -3 6 -11 10 -16 10 -6
0 -7 -4 -4 -10z"/>
<path d="M3746 4228 c3 -4 9 -8 15 -8 5 0 9 4 9 8 0 5 -7 9 -15 9 -8 0 -12 -4
-9 -9z"/>
<path d="M3804 4227 c-8 -9 -4 -19 17 -39 26 -26 27 -26 32 -7 4 15 2 19 -8
15 -7 -2 -16 2 -19 10 -3 8 -1 14 5 14 6 0 7 5 4 10 -8 13 -17 12 -31 -3z"/>
<path d="M3790 4173 c0 -23 15 -39 23 -26 3 5 -1 17 -9 28 -14 18 -14 18 -14
-2z"/>
<path d="M3880 4150 c0 -5 5 -10 11 -10 5 0 7 5 4 10 -3 6 -8 10 -11 10 -2 0
-4 -4 -4 -10z"/>
<path d="M1022 3965 c-16 -8 -20 -15 -12 -20 6 -4 12 -5 13 -4 2 2 9 12 16 22
15 20 14 20 -17 2z"/>
<path d="M4390 3829 c0 -5 5 -7 10 -4 6 3 10 8 10 11 0 2 -4 4 -10 4 -5 0 -10
-5 -10 -11z"/>
<path d="M4365 3800 c-3 -5 -1 -10 4 -10 6 0 11 -7 11 -15 0 -8 -7 -15 -15
-15 -21 0 -19 -17 3 -23 23 -5 37 -47 16 -47 -18 0 -18 -24 0 -39 8 -7 18 -26
21 -42 4 -17 13 -33 20 -36 8 -2 11 -11 8 -19 -3 -8 1 -14 11 -14 9 0 16 -8
16 -18 0 -11 9 -29 20 -42 26 -30 25 -33 -2 -19 -20 11 -21 10 -11 -3 10 -11
10 -17 0 -28 -7 -8 -8 -11 -1 -7 12 7 31 -11 49 -47 6 -11 18 -20 27 -20 16 1
19 -31 5 -53 -4 -6 0 -13 8 -17 8 -3 15 -12 15 -20 0 -8 10 -22 23 -31 l22
-16 -24 3 c-31 4 -40 -19 -9 -24 13 -2 21 -7 19 -13 -1 -5 -7 -9 -12 -7 -10 2
8 -32 31 -61 11 -14 12 -22 2 -37 -9 -15 -9 -18 1 -14 14 5 50 -102 40 -119
-3 -6 -1 -7 5 -3 7 4 12 1 12 -8 0 -9 3 -16 8 -16 12 0 1 94 -14 111 -8 9 -11
19 -7 22 3 4 2 7 -4 7 -6 0 -13 19 -16 43 -13 113 -54 234 -99 296 -10 13 -18
31 -18 40 0 9 -9 34 -19 54 -20 39 -30 139 -16 170 4 9 4 28 1 42 -4 17 -3 23
6 20 7 -3 25 5 40 17 21 17 26 29 22 46 -6 21 -7 21 -20 5 -11 -15 -13 -15
-14 -3 -1 12 -3 12 -14 -3 -13 -17 -14 -16 -19 3 -3 11 -12 20 -19 20 -18 0
-40 -44 -32 -65 5 -11 2 -13 -10 -9 -9 4 -16 18 -16 34 0 34 -39 55 -55 30z
m261 -667 c-10 -10 -19 5 -10 18 6 11 8 11 12 0 2 -7 1 -15 -2 -18z"/>
<path d="M717 3703 c-4 -3 -7 -11 -7 -17 0 -6 5 -5 12 2 6 6 9 14 7 17 -3 3
-9 2 -12 -2z"/>
<path d="M695 3639 c-4 -6 -5 -12 -2 -15 2 -3 7 2 10 11 7 17 1 20 -8 4z"/>
<path d="M641 3612 c-8 -3 -27 -18 -42 -35 -17 -19 -33 -28 -43 -24 -11 5 -20
-4 -30 -28 -16 -37 -42 -50 -31 -15 5 15 3 18 -9 14 -9 -3 -14 -10 -11 -14 3
-5 -3 -11 -12 -14 -11 -4 -18 -16 -19 -33 0 -33 -7 -66 -14 -73 -3 -3 -13 -23
-23 -45 -10 -22 -25 -53 -33 -68 -8 -16 -14 -38 -14 -48 0 -16 -5 -19 -20 -14
-15 5 -18 3 -14 -9 4 -11 1 -16 -10 -16 -9 0 -16 -8 -16 -17 0 -9 3 -13 7 -10
3 4 15 0 25 -10 18 -16 78 -29 78 -17 0 4 -8 12 -17 19 -14 11 -15 16 -5 28 8
9 10 26 6 41 -5 21 -2 28 17 35 13 5 18 10 10 10 -18 1 13 33 41 44 12 4 15
12 11 23 -5 14 -2 16 21 10 23 -6 29 -3 33 14 3 12 11 19 18 16 8 -3 11 2 8
13 -2 10 3 23 11 30 9 8 16 22 16 32 0 24 18 33 36 18 8 -6 18 -8 22 -4 4 4 1
10 -6 12 -10 4 -8 9 7 20 12 8 21 21 21 29 0 8 5 14 10 14 6 0 10 5 10 11 0 8
-4 8 -14 0 -9 -8 -21 -8 -40 -1 -30 11 -36 24 -6 15 11 -3 25 -3 32 2 7 4 15
8 18 9 3 0 17 4 32 8 31 9 29 27 -2 19 -11 -3 -26 -1 -33 4 -6 6 -18 8 -26 5z
m-161 -186 c0 -2 -8 -10 -17 -17 -16 -13 -17 -12 -4 4 13 16 21 21 21 13z
m-30 -66 c0 -5 -5 -10 -11 -10 -5 0 -7 5 -4 10 3 6 8 10 11 10 2 0 4 -4 4 -10z"/>
<path d="M505 3321 c-3 -5 -2 -12 3 -15 5 -3 9 1 9 9 0 17 -3 19 -12 6z"/>
<path d="M110 3285 c13 -14 26 -25 28 -25 3 0 -5 11 -18 25 -13 14 -26 25 -28
25 -3 0 5 -11 18 -25z"/>
<path d="M225 3300 c3 -5 10 -10 16 -10 5 0 9 5 9 10 0 6 -7 10 -16 10 -8 0
-12 -4 -9 -10z"/>
<path d="M156 3248 c3 -5 14 -8 25 -8 11 0 18 -4 14 -9 -3 -5 -1 -12 4 -16 6
-3 7 -13 4 -22 -4 -11 -3 -14 6 -9 7 4 9 16 6 27 -5 16 -3 20 12 17 10 -2 18
3 18 11 0 9 -15 14 -47 15 -25 1 -44 -2 -42 -6z"/>
<path d="M425 3110 c-3 -5 -1 -10 4 -10 6 0 11 5 11 10 0 6 -2 10 -4 10 -3 0
-8 -4 -11 -10z"/>
<path d="M280 3100 c0 -5 5 -10 10 -10 6 0 10 5 10 10 0 6 -4 10 -10 10 -5 0
-10 -4 -10 -10z"/>
<path d="M356 3101 c-4 -6 -13 -8 -21 -4 -8 3 -15 1 -15 -4 0 -12 38 -14 46
-2 3 6 4 13 1 15 -3 3 -8 1 -11 -5z"/>
<path d="M295 3059 c-4 -6 -14 -8 -23 -4 -8 3 -19 0 -24 -7 -12 -20 -9 -32 5
-19 10 8 17 7 25 -1 16 -16 15 -28 -2 -28 -8 0 -17 -7 -20 -16 -5 -12 -2 -15
11 -10 15 6 16 5 1 -11 -8 -10 -13 -24 -11 -31 3 -9 -2 -13 -13 -12 -32 4 -36
1 -20 -16 20 -19 21 -44 2 -44 -7 0 -19 -7 -26 -15 -11 -13 -15 -13 -21 -3 -6
9 -9 10 -9 1 0 -18 22 -63 32 -63 4 0 7 -6 5 -12 -1 -7 5 -13 13 -12 12 1 14
-9 11 -48 -3 -48 -2 -49 17 -37 16 10 18 17 10 32 -15 28 -1 88 19 80 12 -5
14 -1 8 16 -4 14 0 34 13 56 18 29 18 34 5 39 -12 5 -11 9 7 24 19 15 21 22
11 39 -12 23 -5 53 11 53 6 0 8 -7 5 -15 -4 -8 -3 -16 1 -19 19 -12 10 44 -9
58 -12 8 -18 19 -14 25 3 6 2 11 -4 11 -5 0 -13 -5 -16 -11z"/>
<path d="M350 3055 c0 -13 4 -14 20 -5 11 6 20 13 20 15 0 3 -9 5 -20 5 -11 0
-20 -7 -20 -15z"/>
<path d="M374 2931 c0 -9 8 -17 18 -17 10 0 18 4 18 8 0 4 -8 12 -18 17 -14 7
-18 6 -18 -8z"/>
<path d="M425 2920 c-4 -7 -2 -16 6 -21 18 -11 23 -4 11 17 -7 12 -11 13 -17
4z"/>
<path d="M363 2875 c2 -19 9 -31 20 -33 13 -3 17 4 17 30 0 25 -3 29 -10 18
-9 -13 -11 -13 -20 0 -7 11 -9 7 -7 -15z"/>
<path d="M4686 2873 c5 -5 12 -12 16 -18 4 -6 8 -2 8 8 0 9 -7 17 -17 17 -9 0
-12 -3 -7 -7z"/>
<path d="M4710 2831 c0 -5 5 -13 10 -16 6 -3 10 -2 10 4 0 5 -4 13 -10 16 -5
3 -10 2 -10 -4z"/>
<path d="M367 2783 c-9 -2 -15 -9 -12 -14 4 -5 1 -9 -4 -9 -6 0 -11 -10 -11
-22 0 -19 -2 -20 -10 -8 -9 13 -10 13 -10 0 0 -13 -1 -13 -10 0 -8 13 -10 13
-10 -1 0 -15 30 -49 43 -49 12 0 67 62 62 71 -3 4 -1 10 5 14 6 4 8 11 5 16
-6 9 -18 10 -48 2z m30 -28 c0 -8 -4 -15 -9 -15 -4 0 -8 7 -8 15 0 8 4 15 8
15 5 0 9 -7 9 -15z"/>
<path d="M4740 2787 c0 -4 15 -22 34 -41 18 -19 39 -50 45 -68 7 -18 19 -45
27 -60 9 -17 11 -28 5 -28 -6 0 -11 -5 -11 -11 0 -5 4 -7 10 -4 5 3 12 -5 16
-19 3 -14 12 -30 20 -37 8 -7 12 -20 9 -30 -4 -10 -1 -27 4 -38 7 -13 8 -22 1
-26 -5 -3 -9 -21 -7 -38 1 -25 -2 -32 -15 -31 -14 1 -16 -3 -11 -25 12 -45 1
-108 -25 -149 -20 -30 -22 -72 -5 -65 7 3 13 15 13 28 0 12 7 36 15 53 9 17
18 55 22 84 3 29 12 61 20 70 21 23 11 131 -16 194 -12 26 -21 54 -21 64 0 10
-7 20 -15 24 -8 3 -15 12 -15 21 0 20 -41 84 -74 114 -14 14 -26 22 -26 18z"/>
<path d="M4851 2534 c0 -11 3 -14 6 -6 3 7 2 16 -1 19 -3 4 -6 -2 -5 -13z"/>
<path d="M4850 2279 c0 -5 5 -7 10 -4 6 3 10 8 10 11 0 2 -4 4 -10 4 -5 0 -10
-5 -10 -11z"/>
<path d="M4835 2080 c-4 -17 -5 -34 -2 -36 2 -3 7 10 11 27 8 42 0 50 -9 9z"/>
<path d="M4820 2014 c0 -8 5 -12 10 -9 6 3 10 10 10 16 0 5 -4 9 -10 9 -5 0
-10 -7 -10 -16z"/>
<path d="M4801 1780 c-10 -87 -10 -86 0 -67 6 9 8 34 6 55 -2 26 -4 30 -6 12z"/>
<path d="M4389 983 c-13 -16 -12 -17 4 -4 9 7 17 15 17 17 0 8 -8 3 -21 -13z"/>
<path d="M3625 410 c-3 -6 1 -7 9 -4 18 7 21 14 7 14 -6 0 -13 -4 -16 -10z"/>
<path d="M3531 360 c-30 -26 -20 -25 21 0 18 11 26 20 18 20 -8 -1 -26 -10
-39 -20z"/>
<path d="M3478 333 c7 -3 16 -2 19 1 4 3 -2 6 -13 5 -11 0 -14 -3 -6 -6z"/>
<path d="M3358 256 c-26 -26 -96 -56 -117 -48 -8 3 -11 0 -7 -7 4 -6 -1 -14
-11 -19 -10 -4 -19 -13 -20 -19 -3 -15 9 -17 23 -4 16 16 84 51 98 51 7 0 22
10 33 23 41 45 42 66 1 23z"/>
<path d="M2950 210 c0 -5 5 -10 10 -10 6 0 10 5 10 10 0 6 -4 10 -10 10 -5 0
-10 -4 -10 -10z"/>
<path d="M3154 159 c-3 -6 -15 -9 -25 -6 -10 3 -22 1 -25 -4 -3 -5 -14 -9 -25
-9 -10 0 -19 -4 -19 -9 0 -11 71 -2 85 10 5 5 17 9 28 9 10 0 15 5 12 10 -8
13 -22 13 -31 -1z"/>
</g>
</svg>
