<?xml version="1.0" standalone="no"?>
<!DOCTYPE svg PUBLIC "-//W3C//DTD SVG 20010904//EN"
 "http://www.w3.org/TR/2001/REC-SVG-20010904/DTD/svg10.dtd">
<svg version="1.0" xmlns="http://www.w3.org/2000/svg"
 width="500.000000pt" height="500.000000pt" viewBox="0 0 500.000000 500.000000"
 preserveAspectRatio="xMidYMid meet">

<g transform="translate(0.000000,500.000000) scale(0.100000,-0.100000)"
fill="#000000" stroke="none">
<path d="M2564 4730 c-31 -12 -169 -32 -249 -35 -38 -2 -109 -8 -157 -15 -85
-12 -87 -12 -130 14 -28 16 -60 26 -85 26 -53 0 -123 -25 -140 -50 -8 -11 -34
-31 -58 -46 -42 -24 -49 -25 -115 -17 -72 10 -81 5 -60 -27 8 -13 11 -13 19
-1 5 7 14 10 20 6 9 -5 9 -10 0 -21 -12 -15 -7 -19 44 -27 21 -3 27 -1 23 9
-3 8 1 14 10 14 8 0 14 -6 13 -12 -3 -27 1 -48 11 -48 6 0 10 9 10 20 0 12 7
20 16 20 12 0 14 -7 9 -32 -6 -25 -4 -30 8 -25 8 3 20 0 26 -6 8 -8 11 -8 11
0 0 6 -5 13 -12 15 -13 5 -4 38 11 38 6 0 8 -6 5 -14 -3 -9 3 -17 18 -21 38
-11 68 -28 62 -36 -6 -10 137 29 153 43 7 5 18 6 24 2 8 -4 9 -3 5 5 -4 6 -13
10 -20 9 -6 -2 -11 2 -11 7 0 6 3 9 7 8 3 -1 12 4 18 12 7 8 18 15 25 15 7 0
15 9 18 20 3 14 14 20 32 20 20 0 26 4 21 15 -3 10 1 15 12 16 9 0 37 3 61 5
30 4 47 1 52 -8 7 -10 12 -8 24 10 9 12 20 20 25 17 4 -3 11 1 14 7 5 10 7 10
12 1 3 -7 11 -13 17 -13 6 0 19 -7 29 -17 17 -15 18 -15 18 0 0 20 4 21 29 5
15 -9 22 -8 37 6 10 11 27 16 41 13 15 -3 27 1 30 9 6 16 33 19 33 3 0 -6 9
-8 20 -4 29 9 52 -18 44 -50 -4 -17 -11 -24 -20 -21 -8 3 -14 -1 -14 -8 0 -23
-28 -40 -44 -27 -10 8 -16 8 -25 -2 -9 -12 8 -15 101 -20 115 -5 141 0 113 23
-19 15 -21 80 -2 80 7 0 18 -5 25 -12 7 -7 12 -8 12 -4 0 5 6 3 14 -3 10 -8
16 -9 21 -1 3 5 -1 10 -9 10 -8 0 -18 5 -21 10 -4 6 7 10 25 10 17 0 29 -4 26
-9 -3 -5 1 -14 9 -21 12 -10 15 -10 15 1 1 10 4 8 11 -3 5 -10 16 -18 23 -18
10 0 12 -10 6 -39 -9 -49 -4 -57 40 -65 19 -4 44 -10 54 -13 16 -5 17 -3 5 9
-7 8 -20 15 -27 14 -8 -1 -18 6 -22 14 -4 8 -12 25 -19 38 -11 21 -10 24 8 29
12 3 17 11 14 19 -8 21 30 17 60 -6 28 -22 57 -26 57 -9 0 8 6 7 17 -2 13 -11
17 -11 20 -1 3 6 9 12 15 12 7 0 6 -5 -1 -14 -9 -10 -8 -16 4 -26 8 -7 12 -16
9 -21 -3 -5 2 -9 11 -9 10 0 13 -5 9 -12 -4 -7 -3 -8 5 -4 6 4 18 3 26 -4 10
-9 15 -5 20 20 6 28 25 43 25 20 0 -6 11 -8 26 -4 25 6 26 5 22 -25 -3 -18 -1
-34 4 -37 4 -3 8 2 8 11 0 9 5 13 11 9 7 -4 7 1 -1 16 -11 20 -10 21 12 15 12
-4 20 -4 16 0 -10 11 29 38 42 30 6 -3 10 3 10 14 0 28 -36 28 -45 1 -9 -28
-65 -26 -129 4 -95 45 -121 53 -206 65 -47 7 -110 19 -140 26 -30 7 -84 17
-119 20 -42 5 -59 10 -50 16 11 7 11 9 -3 9 -9 0 -19 -6 -21 -12 -3 -8 -6 -5
-6 6 -1 15 -7 17 -31 14 -16 -3 -30 -1 -30 4 0 10 -18 9 -46 -2z m133 -101
c-4 -16 -3 -18 9 -8 11 9 14 7 14 -9 0 -14 -5 -20 -14 -16 -8 3 -21 -5 -30
-17 -8 -13 -19 -19 -23 -15 -4 4 -1 11 6 15 7 5 11 14 7 20 -8 13 11 51 26 51
6 0 8 -9 5 -21z m506 -79 c-3 -11 -11 -20 -18 -20 -10 0 -11 5 -2 24 14 28 28
25 20 -4z m-1373 -29 c0 -6 -4 -13 -10 -16 -5 -3 -10 1 -10 9 0 9 5 16 10 16
6 0 10 -4 10 -9z"/>
<path d="M1410 4652 c0 -4 8 -12 18 -19 15 -9 19 -8 19 3 0 7 -4 11 -9 8 -4
-3 -8 0 -8 5 0 6 -4 11 -10 11 -5 0 -10 -3 -10 -8z"/>
<path d="M1475 4650 c-19 -8 -19 -9 -1 -9 11 -1 30 -10 42 -22 19 -18 22 -18
28 -4 3 9 2 14 -2 11 -5 -3 -15 4 -22 15 -16 21 -17 21 -45 9z"/>
<path d="M3830 4640 c0 -5 5 -10 11 -10 5 0 7 5 4 10 -3 6 -8 10 -11 10 -2 0
-4 -4 -4 -10z"/>
<path d="M1299 4608 c16 -21 74 -24 89 -5 9 10 5 13 -18 11 -16 -1 -34 -5 -40
-9 -6 -4 -19 -1 -28 7 -15 12 -16 11 -3 -4z"/>
<path d="M3485 4610 c3 -5 8 -10 11 -10 2 0 4 5 4 10 0 6 -5 10 -11 10 -5 0
-7 -4 -4 -10z"/>
<path d="M3710 4590 c-9 -17 -8 -26 4 -44 13 -21 13 -26 0 -45 -14 -19 -14
-21 5 -21 11 0 23 -5 27 -11 4 -8 0 -9 -15 -4 -16 5 -21 2 -21 -12 0 -13 -8
-18 -30 -19 -22 -1 -30 3 -30 16 0 10 -7 20 -15 23 -17 7 -30 -9 -15 -18 6 -4
8 -10 5 -14 -4 -7 5 -20 45 -68 6 -7 7 -13 2 -13 -15 0 -4 -111 13 -130 8 -9
12 -20 8 -23 -3 -4 -1 -7 5 -7 7 0 12 9 12 20 0 11 -6 20 -14 20 -24 0 -14 40
11 46 17 5 23 13 23 34 0 24 -3 27 -27 24 -16 -2 -22 -1 -15 2 6 3 10 10 6 15
-3 5 3 9 13 10 87 4 117 15 74 26 -12 3 -18 9 -13 12 21 13 19 83 -2 75 -19
-7 -31 15 -17 29 9 9 14 8 21 -3 5 -8 10 -10 10 -5 -1 16 -23 40 -45 49 -13 5
-15 10 -7 13 14 5 16 29 3 38 -6 3 -15 -4 -21 -15z m25 -190 c3 -5 -1 -10 -9
-10 -8 0 -18 5 -21 10 -3 6 1 10 9 10 8 0 18 -4 21 -10z m-20 -80 c3 -5 1 -10
-4 -10 -6 0 -11 5 -11 10 0 6 2 10 4 10 3 0 8 -4 11 -10z"/>
<path d="M1257 4592 c-9 -2 -15 -8 -12 -13 8 -12 45 -12 45 0 0 13 -12 18 -33
13z"/>
<path d="M2390 4578 c0 -22 14 -35 35 -35 11 0 23 5 27 11 5 7 8 7 8 -2 0 -7
4 -11 9 -8 13 8 1 46 -14 46 -7 0 -15 -6 -18 -12 -3 -10 -9 -10 -26 0 -17 10
-21 10 -21 0z"/>
<path d="M1209 4564 c-10 -12 -9 -13 4 -8 9 3 17 -1 19 -10 1 -9 8 -12 14 -8
6 4 4 13 -7 24 -15 14 -19 15 -30 2z"/>
<path d="M2871 4564 c0 -11 3 -14 6 -6 3 7 2 16 -1 19 -3 4 -6 -2 -5 -13z"/>
<path d="M2496 4555 c-3 -8 -1 -15 4 -15 6 0 10 7 10 15 0 8 -2 15 -4 15 -2 0
-6 -7 -10 -15z"/>
<path d="M3643 4563 c-7 -2 -13 -19 -13 -36 1 -30 1 -31 15 -13 13 17 15 18
15 3 0 -20 4 -21 28 -6 17 11 17 13 -5 35 -13 13 -25 24 -26 23 -1 0 -8 -3
-14 -6z"/>
<path d="M2808 4543 c-32 -8 -19 -20 30 -26 50 -5 62 -2 46 12 -12 13 -55 20
-76 14z"/>
<path d="M3050 4486 c0 -9 5 -16 10 -16 6 0 10 4 10 9 0 6 -4 13 -10 16 -5 3
-10 -1 -10 -9z"/>
<path d="M3155 4470 c4 -6 -6 -7 -27 -3 -19 3 -30 2 -25 -3 5 -5 12 -9 15 -10
7 -1 31 -9 70 -25 32 -13 36 -11 22 6 -7 8 -16 12 -21 9 -5 -3 -9 4 -9 15 0
12 -7 21 -16 21 -8 0 -12 -4 -9 -10z"/>
<path d="M1660 4459 c0 -5 5 -7 10 -4 6 3 10 8 10 11 0 2 -4 4 -10 4 -5 0 -10
-5 -10 -11z"/>
<path d="M3265 4424 c11 -8 19 -20 18 -25 -2 -5 2 -9 7 -9 6 0 10 4 10 8 0 12
-34 42 -46 42 -5 0 0 -8 11 -16z"/>
<path d="M3321 4390 c-9 -5 -8 -9 5 -14 9 -4 21 -3 26 2 12 12 -15 23 -31 12z"/>
<path d="M3613 4388 c-4 -7 -6 -20 -5 -29 2 -9 -4 -19 -13 -22 -8 -4 -15 -12
-15 -18 0 -8 4 -9 13 0 8 6 17 8 20 4 12 -11 8 -23 -7 -23 -15 0 -30 -29 -20
-39 3 -3 11 1 17 10 7 8 20 18 30 22 18 7 24 27 8 27 -5 0 -7 18 -4 40 6 40
-7 54 -24 28z"/>
<path d="M1902 4364 c-72 -24 -121 -51 -122 -67 0 -5 11 0 24 10 13 11 57 30
97 42 41 13 83 27 94 32 l20 8 -20 0 c-11 0 -53 -11 -93 -25z"/>
<path d="M3385 4370 c-7 -11 2 -30 13 -30 4 0 8 9 9 20 2 21 -11 27 -22 10z"/>
<path d="M3531 4308 c-12 -19 -11 -23 5 -35 23 -16 24 -15 16 25 -7 32 -7 32
-21 10z"/>
<path d="M1740 4284 c0 -10 -3 -14 -6 -11 -9 9 -65 -25 -61 -37 2 -5 11 -14
20 -20 13 -8 20 -7 27 4 5 8 6 19 3 25 -4 5 -3 7 2 3 4 -4 21 0 37 8 17 9 28
17 26 18 -1 2 -13 9 -25 15 -20 10 -23 9 -23 -5z"/>
<path d="M3760 4285 c0 -8 7 -15 15 -15 9 0 12 6 9 15 -4 8 -10 15 -15 15 -5
0 -9 -7 -9 -15z"/>
<path d="M3720 4260 c0 -5 5 -10 10 -10 6 0 10 5 10 10 0 6 -4 10 -10 10 -5 0
-10 -4 -10 -10z"/>
<path d="M1650 4221 c0 -6 5 -13 10 -16 6 -3 10 1 10 9 0 9 -4 16 -10 16 -5 0
-10 -4 -10 -9z"/>
<path d="M3736 4208 c3 -10 0 -18 -6 -18 -6 0 -5 -11 5 -30 9 -17 20 -28 25
-25 6 4 10 -1 10 -9 0 -9 5 -16 10 -16 6 0 10 7 10 15 0 14 -12 20 -34 16 -5
-1 -6 5 -3 12 3 8 1 19 -5 25 -6 6 -6 12 1 16 6 4 16 -2 23 -14 17 -26 25 -25
30 4 4 19 1 22 -14 18 -14 -3 -17 0 -12 12 5 12 0 15 -20 14 -20 -2 -25 -6
-20 -20z"/>
<path d="M1610 4190 c-19 -15 -21 -20 -9 -20 16 0 46 27 38 35 -2 2 -15 -5
-29 -15z"/>
<path d="M1070 4039 c0 -5 5 -7 10 -4 6 3 10 8 10 11 0 2 -4 4 -10 4 -5 0 -10
-5 -10 -11z"/>
<path d="M1030 4010 c-8 -5 -12 -11 -9 -14 2 -3 11 -1 19 4 8 5 12 11 9 14 -2
3 -11 1 -19 -4z"/>
<path d="M950 3950 c-14 -17 -40 -40 -59 -51 -18 -11 -35 -29 -38 -40 -4 -16
-11 -19 -29 -15 -14 4 -24 2 -24 -4 0 -5 7 -10 15 -10 18 0 20 -21 3 -40 -10
-11 -9 -11 7 0 64 49 112 96 128 128 7 15 19 26 26 24 7 -1 9 2 5 9 -5 9 -2
10 10 6 12 -5 16 -3 14 5 -8 24 -33 18 -58 -12z m-45 -79 c3 -5 1 -12 -5 -16
-5 -3 -10 1 -10 9 0 18 6 21 15 7z"/>
<path d="M4350 3855 c0 -8 -7 -15 -16 -15 -14 0 -14 -3 -4 -15 10 -12 10 -15
0 -15 -7 0 -10 -7 -6 -16 4 -10 -1 -25 -10 -35 -15 -17 -15 -19 -1 -19 20 0
33 -38 18 -53 -8 -8 -11 -7 -11 3 0 7 -3 11 -6 7 -4 -3 3 -21 14 -39 11 -18
23 -44 27 -57 4 -13 16 -34 28 -47 29 -34 47 -80 36 -91 -6 -6 -2 -19 11 -35
11 -15 20 -33 20 -41 0 -9 11 -24 25 -35 15 -12 23 -26 19 -35 -3 -9 2 -27 11
-41 10 -14 14 -33 10 -45 -7 -23 30 -111 46 -111 7 0 9 -11 5 -30 -4 -21 -2
-29 5 -24 6 3 10 -1 8 -12 -2 -18 2 -34 21 -79 5 -11 11 -30 15 -42 3 -11 12
-24 20 -27 15 -5 15 -2 -7 112 -6 31 -14 50 -20 46 -6 -4 -8 1 -4 13 4 11 1
33 -5 49 -6 16 -22 67 -35 114 -14 47 -36 101 -49 121 -13 21 -32 61 -41 90
-9 30 -20 59 -24 64 -4 6 -8 30 -9 54 0 24 -5 49 -11 56 -5 7 -6 15 -1 21 12
12 21 72 13 77 -4 2 -2 2 5 1 7 -2 15 1 19 7 3 6 16 14 29 19 17 7 22 14 18
29 -6 24 -19 27 -26 9 -3 -8 -6 -9 -6 -2 -1 6 -12 9 -26 6 -15 -2 -25 0 -25 7
0 6 -7 11 -17 11 -9 0 -13 -3 -10 -7 4 -3 2 -12 -4 -19 -6 -8 -8 -21 -5 -30 4
-11 1 -14 -12 -12 -11 2 -16 11 -14 25 2 12 -2 24 -8 28 -6 4 -8 20 -4 41 3
19 3 34 0 34 -3 0 -6 -7 -6 -15z"/>
<path d="M655 3699 c-10 -15 3 -25 16 -12 7 7 7 13 1 17 -6 3 -14 1 -17 -5z"/>
<path d="M636 3635 c-3 -8 -1 -15 4 -15 6 0 10 7 10 15 0 8 -2 15 -4 15 -2 0
-6 -7 -10 -15z"/>
<path d="M590 3612 c-24 -8 -60 -39 -53 -46 6 -6 -1 -8 -36 -10 -8 -1 -21 -16
-30 -33 -20 -40 -34 -43 -25 -5 6 23 5 25 -8 15 -8 -7 -17 -10 -20 -7 -3 3 -5
-3 -5 -13 1 -10 -4 -17 -10 -15 -7 1 -13 -3 -13 -9 0 -5 -5 -7 -12 -3 -7 4 -8
3 -4 -5 4 -6 11 -9 15 -7 3 3 7 -4 7 -15 0 -10 -4 -19 -8 -19 -4 0 -8 -8 -8
-17 0 -22 -82 -192 -92 -193 -5 0 -8 7 -8 16 0 13 -3 14 -15 4 -18 -15 -35 -5
-35 20 0 50 -39 82 -67 54 -11 -11 -27 -14 -50 -11 -20 4 -33 2 -33 -5 0 -6
-12 -3 -26 7 l-26 17 18 -32 c11 -18 36 -41 57 -51 27 -14 39 -28 44 -49 3
-16 9 -27 14 -24 5 3 9 0 9 -5 0 -6 -4 -11 -10 -11 -5 0 -10 -5 -10 -11 0 -6
9 -8 20 -4 14 5 20 2 20 -9 0 -9 -8 -16 -19 -16 -11 0 -22 -8 -25 -17 -4 -17
-19 -82 -21 -93 0 -3 -4 -11 -9 -18 -4 -8 -9 -46 -9 -86 -1 -66 2 -77 32 -125
l34 -52 -7 -107 c-8 -123 1 -147 72 -198 53 -38 63 -60 72 -174 5 -52 13 -117
19 -145 5 -27 17 -88 26 -135 16 -82 38 -162 76 -283 11 -31 19 -72 19 -90 0
-18 9 -64 21 -102 11 -39 27 -99 34 -135 7 -36 14 -60 14 -55 1 6 7 0 14 -11
18 -33 92 -128 180 -234 43 -52 88 -114 99 -138 12 -24 37 -55 57 -70 19 -15
59 -49 87 -77 45 -43 53 -57 59 -100 8 -54 36 -109 60 -119 8 -3 15 -15 15
-26 0 -11 4 -20 8 -20 5 0 29 -13 53 -29 32 -22 47 -27 57 -19 9 8 16 6 27 -8
8 -10 15 -25 15 -32 0 -10 8 -12 29 -7 39 8 109 -11 145 -42 63 -53 256 -134
352 -148 27 -4 73 -18 103 -31 95 -42 169 -57 281 -56 73 1 111 -3 126 -13 11
-7 45 -16 74 -19 29 -3 58 -10 64 -15 7 -6 26 -4 48 4 74 25 116 27 164 5 25
-11 55 -20 67 -20 83 -3 130 0 141 9 7 6 15 8 18 5 3 -3 36 0 73 7 48 8 63 14
53 20 -9 5 -37 5 -64 0 -29 -6 -57 -5 -73 0 -13 6 -30 8 -38 5 -7 -3 -12 -2
-12 2 3 19 -2 23 -16 12 -8 -7 -12 -17 -8 -24 3 -6 3 -8 -2 -4 -4 4 -14 3 -21
-2 -8 -8 -17 -6 -28 5 -19 20 -21 32 -3 32 23 0 97 37 97 48 0 23 26 65 40 66
8 0 10 3 4 5 -6 3 -31 0 -55 -5 -28 -6 -48 -6 -53 0 -6 5 -20 9 -33 9 -13 0
-23 6 -23 14 0 24 20 29 41 10 17 -15 19 -15 19 -1 0 25 -13 28 -89 21 -61 -6
-71 -10 -71 -26 0 -10 -6 -21 -14 -24 -8 -3 -12 -12 -9 -20 3 -8 0 -14 -6 -14
-14 0 -15 37 -1 45 5 3 10 13 10 21 0 11 -23 14 -127 14 -528 1 -1072 232
-1453 618 -181 183 -287 329 -399 552 -156 308 -223 598 -222 964 1 167 -3
201 -20 175 -7 -12 -10 -12 -21 0 -11 11 -11 13 1 6 10 -6 12 -2 6 14 -5 16
-1 23 19 33 14 6 26 18 26 25 0 8 -4 12 -8 9 -4 -2 -14 0 -22 5 -13 8 -13 11
2 22 37 29 -8 81 -50 58 -13 -7 -22 -7 -30 1 -9 9 -12 9 -12 1 0 -7 5 -15 10
-18 15 -9 2 -25 -15 -19 -17 7 -38 -37 -29 -61 4 -10 2 -13 -8 -10 -19 7 -11
55 10 71 9 6 13 18 9 27 -5 13 2 18 30 23 36 7 36 7 14 23 -12 9 -19 20 -15
24 4 4 16 0 26 -10 10 -9 18 -12 18 -8 0 5 7 0 15 -11 11 -14 15 -15 14 -4 -1
8 -1 28 0 44 1 25 4 28 26 24 35 -7 40 7 15 42 -14 20 -30 30 -46 30 -21 0
-24 4 -19 20 4 11 2 20 -4 20 -6 0 -11 5 -11 10 0 6 7 10 16 10 10 0 14 6 11
14 -3 7 -1 18 4 23 7 7 6 19 -2 36 -10 21 -15 24 -30 16 -15 -7 -19 -6 -19 6
0 10 10 15 31 15 23 0 30 4 28 18 -5 51 2 103 13 96 7 -5 9 -1 6 13 -4 14 4
26 28 43 28 19 32 25 22 38 -10 12 -9 14 7 10 11 -2 20 -10 20 -18 0 -17 19
-21 21 -5 2 25 37 94 50 99 8 3 14 16 14 30 0 13 7 26 15 30 9 3 15 0 15 -8 0
-7 7 -19 15 -26 13 -11 14 -10 7 10 -7 18 -4 28 10 42 25 25 19 42 -15 46 -15
2 -27 7 -27 11 0 5 11 6 25 3 18 -3 25 0 25 11 0 8 -6 18 -12 20 -8 3 -6 6 5
6 9 1 17 -6 17 -14 0 -20 10 -19 40 5 24 19 24 19 2 13 -12 -3 -28 -1 -35 4
-6 6 -19 8 -27 5z m-143 -138 c-3 -3 -12 -4 -19 -1 -8 3 -5 6 6 6 11 1 17 -2
13 -5z m-27 -54 c0 -5 -5 -10 -11 -10 -5 0 -7 5 -4 10 3 6 8 10 11 10 2 0 4
-4 4 -10z m-29 -63 c-10 -9 -11 -8 -5 6 3 10 9 15 12 12 3 -3 0 -11 -7 -18z
m-181 -87 c0 -5 -4 -10 -10 -10 -5 0 -10 5 -10 10 0 6 5 10 10 10 6 0 10 -4
10 -10z m7 -72 c4 -7 8 -20 8 -28 0 -8 8 -14 18 -14 24 2 16 -18 -11 -31 -12
-5 -27 -24 -33 -42 -6 -20 -15 -30 -22 -26 -8 5 -8 8 0 10 7 3 10 10 7 17 -3
7 2 19 11 26 16 13 21 40 7 40 -5 0 -9 14 -9 30 0 31 10 39 24 18z m53 -88 c0
-5 -4 -10 -10 -10 -5 0 -10 5 -10 10 0 6 5 10 10 10 6 0 10 -4 10 -10z m24
-212 c-1 -13 -3 -24 -3 -26 -1 -2 -8 4 -17 12 -16 17 -11 36 10 36 7 0 12 -10
10 -22z m-34 -68 c0 -5 -5 -10 -11 -10 -5 0 -7 5 -4 10 3 6 8 10 11 10 2 0 4
-4 4 -10z m80 -130 c0 -5 8 -10 18 -11 14 0 14 -2 -3 -9 -29 -13 -31 -12 -31
10 0 11 4 20 8 20 4 0 8 -4 8 -10z m-108 -62 c-2 -10 -6 -18 -8 -18 -8 0 -22
45 -17 52 8 14 30 -16 25 -34z m88 8 c0 -3 -4 -8 -10 -11 -5 -3 -10 -1 -10 4
0 6 5 11 10 11 6 0 10 -2 10 -4z m20 -191 c-7 -9 -15 -13 -17 -11 -7 7 7 26
19 26 6 0 6 -6 -2 -15z m1240 -2001 c0 -20 -7 -17 -20 6 -9 16 -8 18 5 14 8
-4 15 -12 15 -20z m1230 -240 c0 -16 -16 -19 -25 -4 -8 13 4 32 16 25 5 -4 9
-13 9 -21z m-134 -81 c-10 -10 -19 5 -10 18 6 11 8 11 12 0 2 -7 1 -15 -2 -18z
m-56 -3 c0 -5 -4 -10 -10 -10 -5 0 -10 5 -10 10 0 6 5 10 10 10 6 0 10 -4 10
-10z m-147 -7 c-7 -2 -19 -2 -25 0 -7 3 -2 5 12 5 14 0 19 -2 13 -5z"/>
<path d="M4149 3585 c17 -33 31 -51 31 -40 0 6 -10 21 -21 35 -13 17 -17 18
-10 5z"/>
<path d="M610 3550 c0 -5 5 -10 10 -10 6 0 10 5 10 10 0 6 -4 10 -10 10 -5 0
-10 -4 -10 -10z"/>
<path d="M4205 3480 c3 -5 8 -10 11 -10 2 0 4 5 4 10 0 6 -5 10 -11 10 -5 0
-7 -4 -4 -10z"/>
<path d="M281 3384 c0 -11 3 -14 6 -6 3 7 2 16 -1 19 -3 4 -6 -2 -5 -13z"/>
<path d="M500 3380 c0 -5 5 -10 11 -10 5 0 7 5 4 10 -3 6 -8 10 -11 10 -2 0
-4 -4 -4 -10z"/>
<path d="M250 3355 c0 -8 5 -15 10 -15 6 0 10 7 10 15 0 8 -4 15 -10 15 -5 0
-10 -7 -10 -15z"/>
<path d="M4277 3345 c3 -8 9 -12 14 -9 12 7 11 11 -5 17 -10 4 -13 1 -9 -8z"/>
<path d="M4320 3271 c0 -5 5 -13 10 -16 6 -3 10 -2 10 4 0 5 -4 13 -10 16 -5
3 -10 2 -10 -4z"/>
<path d="M4352 3192 c-10 -7 -10 -15 2 -42 l14 -33 -2 41 c0 23 -1 42 -1 42 0
0 -6 -4 -13 -8z"/>
<path d="M370 3105 c0 -8 5 -15 10 -15 6 0 10 7 10 15 0 8 -4 15 -10 15 -5 0
-10 -7 -10 -15z"/>
<path d="M406 3078 c3 -5 10 -6 15 -3 13 9 11 12 -6 12 -8 0 -12 -4 -9 -9z"/>
<path d="M370 2990 c0 -5 5 -10 10 -10 6 0 10 5 10 10 0 6 -4 10 -10 10 -5 0
-10 -4 -10 -10z"/>
<path d="M4633 2875 c-10 -10 -9 -16 2 -25 8 -7 12 -16 9 -21 -3 -5 2 -9 11
-9 12 0 14 6 9 28 -9 36 -17 43 -31 27z"/>
<path d="M4670 2804 c0 -7 16 -26 35 -43 19 -17 35 -37 35 -44 0 -8 7 -20 15
-27 8 -7 15 -20 15 -29 0 -9 7 -27 16 -40 14 -19 14 -25 3 -32 -13 -8 -6 -13
14 -10 4 0 7 -4 7 -9 0 -5 -4 -10 -8 -10 -5 0 -14 -11 -20 -25 -7 -15 -8 -25
-2 -25 6 0 10 7 10 15 0 19 7 19 27 -1 21 -20 34 -89 19 -104 -7 -7 -7 -15 0
-28 12 -18 8 -42 -7 -42 -5 0 -9 8 -10 18 -1 11 -4 8 -8 -8 -4 -14 -3 -33 3
-44 8 -14 8 -20 -1 -23 -7 -3 -13 -9 -13 -14 0 -6 4 -7 10 -4 19 12 -10 -90
-30 -105 -4 -3 -10 -21 -13 -40 -3 -19 -3 -29 0 -22 2 6 11 12 19 12 8 0 14
10 14 24 0 12 4 36 10 52 5 16 11 43 13 59 2 17 6 35 9 40 3 6 13 33 21 60 18
61 12 132 -16 194 -11 26 -19 51 -18 57 0 6 -6 17 -14 24 -8 7 -15 20 -15 30
0 10 -7 23 -15 30 -8 7 -13 15 -11 19 2 3 -18 29 -45 56 -27 28 -49 45 -49 39z"/>
<path d="M4775 2079 c-4 -6 -5 -12 -2 -15 2 -3 7 2 10 11 7 17 1 20 -8 4z"/>
<path d="M4772 2020 c0 -19 2 -27 5 -17 2 9 2 25 0 35 -3 9 -5 1 -5 -18z"/>
<path d="M4753 1885 c0 -22 2 -30 4 -17 2 12 2 30 0 40 -3 9 -5 -1 -4 -23z"/>
<path d="M4747 1753 c-4 -3 -7 -16 -6 -27 0 -19 1 -19 10 3 10 24 8 36 -4 24z"/>
<path d="M1130 926 c0 -2 8 -10 18 -17 15 -13 16 -12 3 4 -13 16 -21 21 -21
13z"/>
<path d="M1230 845 c19 -19 36 -35 39 -35 3 0 -10 16 -29 35 -19 19 -36 35
-39 35 -3 0 10 -16 29 -35z"/>
<path d="M3860 590 c-9 -6 -10 -10 -3 -10 6 0 15 5 18 10 8 12 4 12 -15 0z"/>
<path d="M3304 256 c-5 -13 -91 -53 -105 -49 -4 1 -19 -9 -33 -22 -17 -16 -42
-26 -69 -29 -52 -5 -87 -16 -87 -27 0 -9 72 0 80 11 3 3 16 7 29 7 30 2 81 23
81 33 0 7 80 36 91 33 3 -1 13 11 23 28 10 17 13 29 6 29 -6 0 -13 -6 -16 -14z"/>
<path d="M2900 209 c0 -5 5 -7 10 -4 6 3 10 8 10 11 0 2 -4 4 -10 4 -5 0 -10
-5 -10 -11z"/>
<path d="M2361 74 c0 -11 3 -14 6 -6 3 7 2 16 -1 19 -3 4 -6 -2 -5 -13z"/>
</g>
</svg>
